<?xml version="1.0" standalone="no"?><!DOCTYPE svg PUBLIC "-//W3C//DTD SVG 1.1//EN" "http://www.w3.org/Graphics/SVG/1.1/DTD/svg11.dtd"><svg t="1776894255029" class="icon" viewBox="0 0 1024 1024" version="1.1" xmlns="http://www.w3.org/2000/svg" p-id="6187" width="32" height="32" xmlns:xlink="http://www.w3.org/1999/xlink"><path d="M314.705 875.98s187.395 150.196 541.187 147.996c238.794 0-280.293-230.095-280.293-230.095L314.705 875.98z" fill="#EEEEEE" p-id="6188"></path><path d="M259.006 445.39c10-5.7 20.1-10.1 30.1-14.2 9.999-4 20.099-7.6 30.099-10.8 10-3.2 20.099-6 30.099-8.5s20.1-4.7 30.1-6.6c40.198-7.7 80.397-10.9 120.596-11 40.2 0 80.398 3.2 120.597 10.9 5 0.9 10 2 15.1 3.1 5 1.1 10 2.3 15.1 3.5 10 2.5 20.1 5.3 30.1 8.5s20.099 6.8 30.098 10.9c10 4.1 20.1 8.6 30.1 14.3-10 5.7-20.1 10.2-30.1 14.3-10 4.1-20.1 7.7-30.099 10.899s-20.1 6-30.1 8.5c-5 1.3-9.999 2.4-15.099 3.5-5 1-10 2.1-15.1 3.1-40.199 7.7-80.398 10.9-120.597 10.9-40.199-0.1-80.398-3.4-120.597-11-10-1.9-20.1-4.1-30.1-6.6s-20.099-5.3-30.098-8.5-20.1-6.8-30.1-10.8c-10-4.3-20-8.7-30.1-14.4z" fill="#62B93E" p-id="6189"></path><path d="M751.594 242.294l-31.599 381.191-4.9 59.099-9.9 119.097-4.3 52.299c-0.8 9.6-6.7 18-15.4 22.1-49.698 23.599-112.596 37.899-181.195 38.499h-8.4c-68.598-0.6-131.497-14.9-181.195-38.5-8.7-4.1-14.6-12.5-15.4-22.099l-4.3-52.299-9.9-119.097-4.9-59.099-31.599-381.19h502.988z" fill="#BA7916" p-id="6190"></path><path d="M556.399 242.294c0.5 16 0.8 32.3 1.1 48.5-18.5 0.9-37.7 1.3-57.299 1.3-105.697 0-198.295-13.4-250.094-33.5l4 48.499c52.499 19.3 142.997 32 246.094 32 19.9 0 39.3-0.5 57.999-1.4 0.8 66.998 0.5 135.396-1.1 205.194-3 128.497-9.9 252.594-20.3 370.092 55.9-4.1 107.098-17.2 148.797-37.1 8.7-4.1 14.6-12.5 15.4-22.099l4.3-52.299 9.9-119.097 4.9-59.099 31.598-381.19H556.4z" fill="#A36412" p-id="6191"></path><path d="M294.005 287.593l-43.099-20.3 29.5 356.092 4.9 59.1 9.9 119.096 4.299 52.299c0.8 9.6 6.7 18 15.4 22.1 9.3 4.4 19.1 8.3 29.199 12.1l-50.099-600.487z" fill="#CD8601" p-id="6192"></path><path d="M500.2 488.689c-98.297 0-185.595-17-241.194-43.3l7.5 93.298 11.8 146.197c1.9 0.7 3.8 1.5 5.8 2.2 55.098 20.3 131.596 32.9 216.094 32.9s161.097-12.6 216.095-32.9c1.9-0.7 3.9-1.4 5.7-2.2l11.8-146.197 7.5-93.297c-55.5 26.299-142.897 43.299-241.095 43.299z" fill="#84D664" p-id="6193"></path><path d="M557.099 542.887c-1.4 59.499-3.7 117.898-6.7 175.396 64.399-3.9 121.997-15 165.996-31.2 1.9-0.699 3.9-1.399 5.7-2.199l11.8-146.197 7.5-93.297c-44.4 21-108.998 35.999-183.296 41.299-0.3 18.6-0.5 37.299-1 56.198z" fill="#75CF52" p-id="6194"></path><path d="M794.093 195.295c0 39-131.597 70.499-293.893 70.499s-293.893-31.6-293.893-70.499v47c0 38.998 131.597 70.498 293.893 70.498s293.893-31.6 293.893-70.499v-46.999z" fill="#FCCA3C" p-id="6195"></path><path d="M206.307 195.295a293.893 70.498 0 1 0 587.786 0 293.893 70.498 0 1 0-587.786 0z" fill="#FCE160" p-id="6196"></path><path d="M212.007 195.895c0-38.599 130.297-69.798 290.993-69.798 160.296 0 290.193 31.1 290.993 69.498v-0.3c0-38.999-131.597-70.498-293.893-70.498s-293.893 31.6-293.893 70.498 131.597 70.499 293.893 70.499h1.4c-159.996-0.2-289.493-31.4-289.493-69.899z" fill="#FFFFFF" p-id="6197"></path><path d="M738.895 121.497c0 31.6-106.898 57.299-238.695 57.299s-238.694-25.6-238.694-57.299l-24.9 58.799c0 34.899 117.998 63.298 263.594 63.298s263.594-28.299 263.594-63.298l-24.9-58.799z" fill="#FBAF27" p-id="6198"></path><path d="M261.506 121.497a238.694 57.299 0 1 0 477.389 0 238.694 57.299 0 1 0-477.39 0z" fill="#FFC146" p-id="6199"></path><path d="M267.506 121.497c0-31.5 104.697-57.099 234.194-57.298h-1.5c-131.797 0-238.694 25.699-238.694 57.298s106.897 57.299 238.694 57.299h1.5c-129.497-0.2-234.194-25.8-234.194-57.299z" fill="#FFFFFF" p-id="6200"></path><path d="M326.304 121.497a173.896 41.699 0 1 0 347.792 0 173.896 41.699 0 1 0-347.792 0z" fill="#FCE673" p-id="6201"></path><path d="M486.9 97.398c-49.698 1.6-88.097 11.7-88.097 24.1 0 13.399 45.399 24.299 101.297 24.299 1.7 0 3.4 0 5-0.1l-18.2-48.3z" fill="#FCD14E" p-id="6202"></path><path d="M398.803 121.497c0-9.2 21.5-17.3 53.198-21.4-32.499 4.1-54.498 12.1-54.498 21.4 0 9.2 22.1 17.3 54.498 21.4-31.699-4.1-53.198-12.2-53.198-21.4z" fill="#FFFFFF" p-id="6203"></path><path d="M487 145.597c4.3 0.1 8.7 0.2 13.2 0.2 1.7 0 3.4 0 5-0.1l-18.2-48.1v48z" fill="#F2BE27" p-id="6204"></path><path d="M737.595 127.497c-6.8 22.3-49.8 100.998-318.993 112.997 25.7 2 53.099 3.1 81.598 3.1 145.597 0 263.594-28.299 263.594-63.298l-24.9-58.799s-0.1 2.1-1.2 5.6c0 0.1-0.1 0.2-0.1 0.4z" fill="#F8A012" p-id="6205"></path><path d="M699.196 736.583c-22.8 14.1-43.5 47.199-53.7 66.598-29.098-20.6-100.197-36.599-109.197-38.499 0 0.6-0.1 1.1-0.1 1.7 4.2 9.2 22.7 49.799 26.4 55.399 4.2 6.4 54.499 55.598 56.998 57.298 2.2 1.5 39-27.899 39.3-53.598l31.899-14.3s0.9-1.1 2.4-2.9l0.6-6.7 5.4-64.998z" fill="#935903" p-id="6206"></path><path d="M651.197 911.679s-14.9-180.796-189.896-184.296c0 0-48.299 177.996 189.896 184.296z" fill="#79D054" p-id="6207"></path><path d="M475 728.083c-4.499-0.3-8.999-0.6-13.699-0.7 0 0-48.299 177.996 189.896 184.296 0 0 0-0.3-0.1-0.7C437.102 898.579 472.1 739.683 475 728.083z" fill="#8EE366" p-id="6208"></path><path d="M471.101 742.283s114.897 64.998 157.696 165.596c0.1 0.1-101.397-133.097-157.696-165.596z" fill="#62B93E" p-id="6209"></path><path d="M617.698 906.779s180.995-13.9 178.695-130.597c-0.1 0-139.996-64.899-178.695 130.597z" fill="#60C72B" p-id="6210"></path><path d="M631.197 893.88c-3-0.5 86.498-106.598 149.397-110.198-0.1 0-63.499 24.4-149.397 110.197z" fill="#61AF3E" p-id="6211"></path><path d="M607.598 883.88c-15.2-2.4-87.398-6.1-109.498 46.298 0 0 75.399 45.3 130.197 3.3 17.5-13.1 23.6-32.999 23.6-32.999-5.6-8.4-29-14.2-44.3-16.6z" fill="#80DB5C" p-id="6212"></path><path d="M642.197 903.179s-49.799 17.2-134.197 23.9c0 0 83.698 4 134.197-23.9z" fill="#74CA4E" p-id="6213"></path><path d="M731.295 880.38c7.9 6.7 22.8 19.099 26.4 40.298 1.1 6.7 3.9 22.9-5.3 32.9-14.7 16.1-51.8 7.1-72.199-10.7-9.2-8-13.9-16.8-16.7-22.3-4.4-8.6-17.1-33.199-6.2-48.098 7.9-10.8 24.1-10.8 30.6-10.8 20.9-0.2 35.7 12.2 43.399 18.7z" fill="#DE6529" p-id="6214"></path><path d="M670.696 878.38c1.8 0.8 3.5 1.7 5.2 2.7 1.7 1 3.4 2 5 3.1s3.2 2.2 4.8 3.4c1.6 1.2 3.1 2.4 4.6 3.7 2.9 2.6 5.6 5.499 8.3 8.199l4.1 4.2 4 4.2c1.3 1.4 2.6 2.7 3.8 4 1.3 1.3 2.5 2.6 3.8 3.8 2.6 2.4 5.3 4.6 8 6.8l4.099 3.4c1.4 1.1 2.8 2.2 4.3 3.3l4.4 3.3c1.5 1.1 3 2.2 4.5 3.4 1.3 1 1.5 2.8 0.5 4.099-0.7 0.8-1.7 1.2-2.7 1.1-2-0.2-4-0.6-5.9-1.1-2-0.5-3.9-1.1-5.8-1.8-3.8-1.4-7.5-3.2-10.9-5.4-1.7-1.1-3.4-2.3-5-3.6-1.6-1.3-3.1-2.7-4.6-4.1-1.5-1.4-2.9-2.8-4.3-4.3s-2.6-3-3.9-4.4c-1.2-1.5-2.4-2.9-3.7-4.3-1.2-1.4-2.5-2.8-3.7-4.1-2.6-2.7-5.299-5.1-7.999-7.699l-3.9-3.9c-1.3-1.3-2.6-2.7-3.9-4-1.3-1.4-2.6-2.7-3.8-4.1-1.3-1.4-2.5-2.8-3.8-4.3-1.2-1.5-1-3.8 0.5-5 1.3-1 2.8-1.1 4-0.6z" fill="#DE6529" p-id="6215"></path><path d="M659.832 886.272a4 4.7 8.783 1 0 1.435-9.29 4 4.7 8.783 1 0-1.435 9.29z" fill="#FFFFFF" p-id="6216"></path><path d="M659.997 968.377c-9.4 4.3-27 12.5-47.7 6.7-6.5-1.8-22.399-6.2-27.499-18.8-8.3-20.199 15.7-49.898 40.5-60.798 11.2-4.9 21.099-5.4 27.299-5.6 9.6-0.3 37.299-1.3 46.099 14.9 6.4 11.7-0.5 26.4-3.2 32.3-8.9 19.099-26.4 27.098-35.5 31.298z" fill="#E87C31" p-id="6217"></path><path d="M597.317 931.566a4 7.9 52.476 1 0 12.53-9.624 4 7.9 52.476 1 0-12.53 9.624z" fill="#FFFFFF" p-id="6218"></path><path d="M698.696 904.879c-2.8-5.2-7.8-8.6-13.3-10.8 6.4 11.7-0.5 26.4-3.2 32.2-8.9 18.999-26.4 27.099-35.5 31.299-9.399 4.3-26.999 12.5-47.698 6.7-2.8-0.8-7.5-2.1-12.2-4.4 6.4 9.8 19.7 13.6 25.5 15.2 20.6 5.8 38.299-2.4 47.699-6.7 9.1-4.2 26.599-12.3 35.499-31.3 2.7-5.8 9.6-20.5 3.2-32.2z" fill="#D9702C" p-id="6219"></path><path d="M687.596 914.379c-1.5 1.3-3.1 2.4-4.7 3.6-1.6 1.1-3.3 2.2-4.9 3.2-1.7 1-3.4 2-5.1 2.9-1.7 0.9-3.5 1.8-5.3 2.5-3.6 1.6-7.3 2.7-11 4l-5.5 1.9-5.5 1.8c-1.8 0.6-3.499 1.2-5.299 1.8-1.7 0.6-3.4 1.2-5 1.8-3.3 1.3-6.4 2.799-9.6 4.399l-4.8 2.3-4.8 2.4-4.9 2.6c-1.6 0.9-3.3 1.8-5 2.7-1.4 0.7-3.2 0.2-4-1.3-0.5-0.9-0.4-2 0.1-2.9 1.1-1.7 2.3-3.3 3.6-4.9 1.3-1.6 2.7-3 4.1-4.4 2.9-2.8 6.1-5.4 9.5-7.6 1.7-1.1 3.5-2.1 5.4-2.9 1.8-0.9 3.7-1.7 5.6-2.4 1.9-0.7 3.8-1.4 5.7-2 1.9-0.6 3.8-1.1 5.6-1.6 1.9-0.5 3.7-1 5.4-1.5 1.8-0.5 3.5-1 5.3-1.6 3.5-1.2 6.9-2.7 10.4-4 1.7-0.7 3.5-1.3 5.2-1.9 1.8-0.6 3.5-1.2 5.3-1.8 1.8-0.6 3.6-1.2 5.4-1.7 1.8-0.6 3.599-1.1 5.499-1.6s3.8 0.7 4.3 2.6c0.5 1.4 0 2.8-1 3.6z" fill="#CD682E" p-id="6220"></path><path d="M308.605 463.99c-18.4-5.5-35.1-11.7-49.6-18.6l7.5 93.297 11.8 146.197c1.9 0.7 3.8 1.5 5.8 2.2 13.5 5 28.4 9.5 44.3 13.5l-19.8-236.595z" fill="#A8EA8F" p-id="6221"></path><path d="M313.605 509.188c-7.5 0.6-14.2-5-14.8-12.6l-9.4-116.397c-0.6-7.5 5-14.2 12.6-14.8 7.5-0.6 14.2 5 14.8 12.6l9.4 116.397c0.6 7.5-5 14.1-12.6 14.8z m-13-170.296c-7.5 0.6-14.2-5-14.8-12.6-0.6-7.5 5-14.2 12.6-14.8 7.5-0.6 14.2 5 14.8 12.6 0.6 7.6-5 14.2-12.6 14.8z" fill="#FFFFFF" p-id="6222"></path><path d="M741.295 445.39s-33.3 210.995-190.996 272.893c64.399-3.9 121.997-15 165.996-31.2 1.9-0.699 3.9-1.399 5.7-2.199l11.8-146.197 7.5-93.297z" fill="#62B93E" p-id="6223"></path></svg>